<?xml version="1.0" encoding="utf-8"?>
<!-- Generator: Adobe Illustrator 24.0.2, SVG Export Plug-In . SVG Version: 6.00 Build 0)  -->
<svg version="1.1" id="Capa_1" xmlns="http://www.w3.org/2000/svg" xmlns:xlink="http://www.w3.org/1999/xlink" x="0px" y="0px"
	 viewBox="0 0 387 152" style="enable-background:new 0 0 387 152;" xml:space="preserve">
<style type="text/css">
	.st0{fill:#FFEEE5;}
</style>
<g>
	<g>
		<circle class="st0" cx="108.2" cy="17.77" r="7.43"/>
		<path class="st0" d="M94.61,76.01v-0.03C94.6,54.14,76.89,36.44,55.04,36.44c-9.35,0-17.94,3.24-24.71,8.66V17.91
			c0-4.1-3.33-7.43-7.43-7.43h0c-4.1,0-7.43,3.33-7.43,7.43v58.1v32.26c0,4.1,3.33,7.43,7.43,7.43h0c4.1,0,7.43-3.33,7.43-7.43
			v-1.36c6.77,5.42,15.36,8.66,24.71,8.66C76.9,115.58,94.61,97.87,94.61,76.01L94.61,76.01z M55.04,100.73
			c-13.5,0-24.47-10.83-24.71-24.27v-0.89c0.24-13.45,11.21-24.27,24.71-24.27c13.65,0,24.72,11.07,24.72,24.72
			S68.69,100.73,55.04,100.73z"/>
		<path class="st0" d="M331.96,36.56c-21.85,0-39.57,17.72-39.57,39.57c0,21.85,17.72,39.57,39.57,39.57
			c21.85,0,39.57-17.72,39.57-39.57C371.53,54.28,353.81,36.56,331.96,36.56z M331.96,100.85c-13.65,0-24.72-11.07-24.72-24.72
			c0-13.65,11.07-24.72,24.72-24.72s24.72,11.07,24.72,24.72C356.68,89.78,345.61,100.85,331.96,100.85z"/>
		<path class="st0" d="M161.35,36.56c-9.35,0-17.94,3.24-24.71,8.66v-1.36c0-4.1-3.33-7.43-7.43-7.43h0c-4.1,0-7.43,3.33-7.43,7.43
			v29.78v2.36v0.12v58.1c0,4.1,3.33,7.43,7.43,7.43h0c4.1,0,7.43-3.33,7.43-7.43v-27.19c6.77,5.42,15.36,8.66,24.71,8.66
			c21.85,0,39.57-17.72,39.57-39.57C200.93,54.28,183.21,36.56,161.35,36.56z M161.35,100.85c-13.5,0-24.47-10.83-24.71-24.27v-0.89
			c0.24-13.45,11.21-24.27,24.71-24.27c13.65,0,24.72,11.07,24.72,24.72C186.07,89.78,175.01,100.85,161.35,100.85z"/>
		<path class="st0" d="M278.8,36.44L278.8,36.44c-4.1,0-7.43,3.33-7.43,7.43v1.36c-6.77-5.42-15.36-8.66-24.71-8.66
			c-21.85,0-39.57,17.72-39.57,39.57c0,4.55,0.77,8.91,2.18,12.98c2.55,7.36,7.22,13.73,13.27,18.39c6.68,5.14,15.04,8.2,24.12,8.2
			c9.08,0,17.44-3.06,24.12-8.2c-2.41,10.8-11.88,18.92-23.31,19.29c-0.27-0.03-0.53-0.05-0.81-0.05c-0.27,0-0.54,0.02-0.81,0.05
			c-3.72,0.4-6.62,3.55-6.62,7.39c0,4.1,3.33,7.43,7.43,7.43v0.05c9.35,0,17.94-3.24,24.71-8.66c9.06-7.25,14.86-18.4,14.86-30.91
			V76.13v-0.12v-2.36V43.87C286.23,39.76,282.9,36.44,278.8,36.44z M246.66,100.85c-8.89,0-16.68-4.7-21.04-11.74
			c-2.33-3.77-3.68-8.22-3.68-12.98c0-1.86,0.21-3.67,0.6-5.41c2.47-11.05,12.33-19.31,24.12-19.31c11.79,0,21.65,8.26,24.12,19.31
			c0.36,1.6,0.56,3.26,0.59,4.96v0.89c-0.08,4.59-1.41,8.88-3.67,12.53C263.34,96.16,255.55,100.85,246.66,100.85z"/>
		<path class="st0" d="M115.62,73.65h0.01V43.87c0-4.1-3.33-7.43-7.43-7.43h0c-4.1,0-7.43,3.33-7.43,7.43v29.78v2.36v32.26
			c0,4.1,3.33,7.43,7.43,7.43h0c4.1,0,7.43-3.33,7.43-7.43V76.01h-0.01V73.65z"/>
		<path class="st0" d="M94.61,75.98v0.03h0c0,0,0,0,0,0C94.61,76,94.61,75.99,94.61,75.98z"/>
		<rect x="115.62" y="73.65" class="st0" width="0.01" height="2.36"/>
	</g>
</g>
</svg>
